<svg width="22" height="29" viewBox="0 0 22 29" fill="none" xmlns="http://www.w3.org/2000/svg">
<path fill-rule="evenodd" clip-rule="evenodd" d="M0.200195 4.24999C0.200195 3.26869 0.57948 2.32758 1.25461 1.63369C1.92974 0.939808 2.84542 0.549988 3.8002 0.549988C3.8002 2.02194 4.36912 3.4336 5.38182 4.47443C6.39452 5.51526 7.76803 6.09999 9.2002 6.09999H12.8002C14.2324 6.09999 15.6059 5.51526 16.6186 4.47443C17.6313 3.4336 18.2002 2.02194 18.2002 0.549988C19.155 0.549988 20.0706 0.939808 20.7458 1.63369C21.4209 2.32758 21.8002 3.26869 21.8002 4.24999V24.6C21.8002 25.5813 21.4209 26.5224 20.7458 27.2163C20.0706 27.9102 19.155 28.3 18.2002 28.3H3.8002C2.84542 28.3 1.92974 27.9102 1.25461 27.2163C0.57948 26.5224 0.200195 25.5813 0.200195 24.6V4.24999ZM5.6002 11.65C5.12281 11.65 4.66497 11.8449 4.3274 12.1918C3.98984 12.5388 3.8002 13.0093 3.8002 13.5C3.8002 13.9906 3.98984 14.4612 4.3274 14.8081C4.66497 15.1551 5.12281 15.35 5.6002 15.35H5.6182C6.09559 15.35 6.55342 15.1551 6.89099 14.8081C7.22855 14.4612 7.4182 13.9906 7.4182 13.5C7.4182 13.0093 7.22855 12.5388 6.89099 12.1918C6.55342 11.8449 6.09559 11.65 5.6182 11.65H5.6002ZM11.0002 11.65C10.5228 11.65 10.065 11.8449 9.7274 12.1918C9.38984 12.5388 9.2002 13.0093 9.2002 13.5C9.2002 13.9906 9.38984 14.4612 9.7274 14.8081C10.065 15.1551 10.5228 15.35 11.0002 15.35H16.4002C16.8776 15.35 17.3354 15.1551 17.673 14.8081C18.0106 14.4612 18.2002 13.9906 18.2002 13.5C18.2002 13.0093 18.0106 12.5388 17.673 12.1918C17.3354 11.8449 16.8776 11.65 16.4002 11.65H11.0002ZM5.6002 19.05C5.12281 19.05 4.66497 19.2449 4.3274 19.5918C3.98984 19.9388 3.8002 20.4093 3.8002 20.9C3.8002 21.3906 3.98984 21.8612 4.3274 22.2081C4.66497 22.5551 5.12281 22.75 5.6002 22.75H5.6182C6.09559 22.75 6.55342 22.5551 6.89099 22.2081C7.22855 21.8612 7.4182 21.3906 7.4182 20.9C7.4182 20.4093 7.22855 19.9388 6.89099 19.5918C6.55342 19.2449 6.09559 19.05 5.6182 19.05H5.6002ZM11.0002 19.05C10.5228 19.05 10.065 19.2449 9.7274 19.5918C9.38984 19.9388 9.2002 20.4093 9.2002 20.9C9.2002 21.3906 9.38984 21.8612 9.7274 22.2081C10.065 22.5551 10.5228 22.75 11.0002 22.75H16.4002C16.8776 22.75 17.3354 22.5551 17.673 22.2081C18.0106 21.8612 18.2002 21.3906 18.2002 20.9C18.2002 20.4093 18.0106 19.9388 17.673 19.5918C17.3354 19.2449 16.8776 19.05 16.4002 19.05H11.0002Z" fill="white"/>
</svg>
